<svg version="1" xmlns="http://www.w3.org/2000/svg" width="2098.667" height="2098.667" viewBox="0 0 1574.000000 1574.000000"><path d="M878.8.5c-.1.1-5.7.6-12.3.9-11.8.6-17 1-29 2.2-25.6 2.5-28.8 2.8-42.5 4.9-1.4.2-5 .7-8 1-3 .4-5.7.8-6 1-.3.2-3.4.6-7 1s-6.8.9-7.1 1.1c-.3.1-3.4.8-7 1.4-8.1 1.3-9.7 1.6-21.7 4.1-5.3 1.1-10.8 2.2-12.2 2.5-1.4.3-4.1.9-6 1.4-1.9.5-4.6 1.1-6 1.4-4.3.7-31.1 7.6-40 10.2-19.1 5.5-23.4 6.9-43.5 13.6-21.4 7.1-62 22.8-77.2 29.9-4.6 2.1-8.6 3.9-8.8 3.9-.9 0-44.3 21.6-52 25.9-54.1 29.9-101.5 61.5-140 93.3-1.1.9-5.4 4.4-9.5 7.8-29 24-70.3 63.7-93.5 90.1-19 21.5-25.9 29.7-39.2 46.7C161.2 407.2 121 475.3 90 548.5c-6.5 15.4-8.2 19.7-14.8 37-16.4 43.2-33.9 107-41.6 152-.9 4.9-1.8 10.1-2.1 11.5-.2 1.3-.7 4.2-1 6.5-.3 2.2-.8 4.7-1 5.5-.2.8-.6 3.7-1 6.5-.3 2.7-1 7.7-1.5 11s-1.2 8.7-1.5 12c-.4 3.3-.8 7.1-1 8.5-.4 3.1-1.3 12.5-2 20.5-.3 3.3-.7 8-1 10.5-2.7 24.8-2.7 111 0 138.5.1 1.6.6 6.8.9 11.5.4 4.7.9 9.8 1.1 11.5.2 1.6.6 5.7 1 9s.8 7.1 1 8.5c.2 1.4.6 5 1 8s.8 6.6 1 8c.4 2.6 3 19.5 4 26.5.3 2.2.8 4.7 1 5.5.2.8.7 3.1 1 5 4.4 25.9 20.5 91.8 26.3 107 .3.8.6 1.7.7 2 3 11.6 21.1 60.7 28.2 77 2.9 6.6 4.2 9.5 7.3 17 3.7 8.6 18.5 39.8 20 42 .5.8 1.8 3.4 2.9 5.6 5 10.9 24.9 45.6 38 66.4 17.7 28.2 45.7 67.4 61.5 86.1 1.7 2 4.9 5.8 7.1 8.5 15.4 18.8 41.9 47.9 53.7 59.2l3.5 3.3 636.2-636.3 636.3-636.2-11.8-11.6c-10.6-10.3-17.2-16.3-37.4-34.4-4.3-3.8-21.7-17.9-42.1-34.1-4.7-3.7-28.4-20.8-35.4-25.5-4.4-2.9-8.1-5.7-8.3-6.2-.2-.4-.8-.8-1.3-.8s-3.1-1.5-5.7-3.3c-20-13.9-54.4-33.8-86.7-50.2-43.2-21.9-79.3-37-126-52.6-20.4-6.8-66.3-19.7-76.4-21.4-1.9-.3-3.8-.8-4.1-1-.4-.3-2.5-.7-4.6-1-2.2-.4-5.2-1-6.9-1.5-2.7-.8-5.3-1.3-17-3.5-17.2-3.3-36.1-6.3-55.5-9-5.4-.8-16.5-2-26.5-3-3.3-.4-7.6-.8-9.5-1-3.3-.3-14.5-1.3-25.5-2.2-6.4-.5-95.2-1.3-95.7-.8zM994.7 1278.1L698.8 1574H1291v-296c0-162.8-.1-296-.2-295.9-.2 0-133.4 133.2-296.1 296z"/></svg>